<?xml version="1.0" encoding="utf-8"?>
<!-- Generator: Adobe Illustrator 15.0.2, SVG Export Plug-In . SVG Version: 6.00 Build 0)  -->
<!DOCTYPE svg PUBLIC "-//W3C//DTD SVG 1.1//EN" "http://www.w3.org/Graphics/SVG/1.1/DTD/svg11.dtd">
<svg version="1.1" id="Layer_1" xmlns="http://www.w3.org/2000/svg" xmlns:xlink="http://www.w3.org/1999/xlink" x="0px" y="0px"
	 width="924.993px" height="561.822px" viewBox="0 0 924.993 561.822" enable-background="new 0 0 924.993 561.822"
	 xml:space="preserve">
<path fill="#003263" d="M823.89,272.091v22.199h-80.711v-22.199h41.166v-33.712c0-7.128-3.732-11.176-11.023-11.176h-30.143v-22.21
	h34.038c19.762,0,34.354,11.513,34.354,30.796v36.302H823.89z"/>
<path fill="#003263" d="M823.89,272.091h-0.174v22.199h0.174v-0.164h-80.711v0.164h0.174v-22.199h-0.174v0.163h41.166h0.163v-0.163
	v-33.712c-0.011-7.193-3.819-11.339-11.187-11.35h-30.143v0.174h0.174v-22.21h-0.174v0.174h34.038
	c19.707,0.011,34.181,11.437,34.181,30.622v36.302v0.163h0.174h12.318V272.091h-0.174H823.89v-0.174h-12.318v0.174h0.163v-36.302
	c0-9.685-3.667-17.433-9.815-22.754c-6.159-5.321-14.788-8.205-24.702-8.205h-34.038h-0.163v0.163v22.21v0.163h0.163h30.143
	c7.226,0.022,10.827,3.939,10.85,11.013v33.712h0.174v-0.174h-41.166h-0.163v0.174v22.199v0.163h0.163h80.711h0.163v-0.163v-22.199
	v-0.174h-0.163V272.091"/>
<path fill="#003263" d="M135.969,204.993h19.446c11.35,0,25.126,8.912,25.126,30.796v22.852h-27.227v-21.557
	c0-5.669-2.601-9.881-11.187-9.881h-6.159V204.993z"/>
<path fill="#003263" d="M135.969,204.993v0.174h19.446c11.263,0,24.952,8.814,24.952,30.622v22.852h0.174v-0.174h-27.227v0.174
	h0.164v-21.557c0-2.862-0.653-5.376-2.416-7.182c-1.763-1.807-4.614-2.873-8.935-2.873h-6.159v0.174h0.163v-22.21H135.969v0.174
	V204.993h-0.163v22.21v0.163h0.163h6.159c8.531,0.022,10.991,4.103,11.013,9.718v21.557v0.164h0.174h27.227h0.163v-0.164v-22.852
	c-0.021-21.96-13.853-30.926-25.289-30.959h-19.446h-0.163v0.163H135.969"/>
<path fill="#003263" d="M623.685,204.917h14.745c15.234,0,26.747,11.176,26.747,30.785v58.512h-49.425v-22.21h22.198v-33.865
	c0-7.127-4.059-11.023-9.892-11.023h-4.374V204.917z"/>
<path fill="#003263" d="M623.685,204.917v0.163h14.745c15.147,0.011,26.563,11.078,26.573,30.622v58.512h0.174v-0.174h-49.425v0.174
	h0.163v-22.21h-0.163v0.174h22.198h0.164v-0.174v-33.865c-0.012-7.193-4.136-11.175-10.056-11.187h-4.374v0.164h0.174v-22.199
	H623.685v0.163V204.917h-0.163v22.199v0.174h0.163h4.374c5.757,0.011,9.707,3.776,9.718,10.849v33.865h0.174v-0.163h-22.198h-0.175
	v0.163v22.21v0.163h0.175h49.425h0.164v-0.163v-58.512c-0.022-19.674-11.59-30.926-26.911-30.959h-14.745h-0.163v0.174H623.685"/>
<path fill="#003263" d="M569.809,294.29v-55.911c0-7.291-3.732-11.176-11.023-11.176h-18.956v36.781
	c0,16.53-6.323,30.306-24.801,30.306h-20.74v-22.199h11.502c5.354,0,6.801-2.59,6.801-7.617v-37.271h-16.519v-22.21h74.215
	c15.562,0,26.748,11.676,26.748,30.796v58.501H569.809z"/>
<path fill="#003263" d="M569.809,294.29h0.163v-55.911c-0.011-7.356-3.831-11.339-11.187-11.35h-18.956h-0.175v0.174v36.781
	c-0.021,16.508-6.257,30.132-24.626,30.143h-20.74v0.164h0.163v-22.199h-0.163v0.163h11.502c2.699,0,4.462-0.653,5.539-1.98
	s1.437-3.275,1.437-5.8v-37.271v-0.174h-0.175h-16.519v0.174h0.163v-22.21h-0.163v0.174h74.215
	c15.463,0,26.563,11.567,26.573,30.622v58.501h0.175v-0.164h-27.227V294.29h0.163H569.809v0.163h27.227h0.163v-0.163v-58.501
	c-0.033-19.185-11.263-30.926-26.911-30.959h-74.215h-0.174v0.163v22.21v0.163h0.174h16.519v-0.163h-0.163v37.271
	c-0.032,5.005-1.36,7.411-6.638,7.443h-11.502h-0.174v0.174v22.199v0.163h0.174h20.74c9.283,0.011,15.54-3.46,19.457-9.021
	c3.929-5.55,5.507-13.156,5.507-21.448v-36.781h-0.163v0.163h18.956c7.226,0.022,10.827,3.776,10.849,11.013v55.911v0.163h0.175
	V294.29"/>
<path fill="#003263" d="M383.892,204.993h62.875c15.562,0,26.737,11.676,26.737,30.796v58.501h-27.216v-55.911
	c0-7.291-3.732-11.176-11.023-11.176h-24.146v67.087h-27.227V204.993z"/>
<path fill="#003263" d="M383.892,204.993v0.174h62.875c15.463,0,26.563,11.567,26.573,30.622v58.501h0.164v-0.164h-27.216v0.164
	h0.163v-55.911c-0.011-7.356-3.83-11.339-11.187-11.35h-24.146h-0.164v0.174v67.087h0.164v-0.164h-27.227v0.164h0.163v-89.297
	H383.892v0.174V204.993h-0.164v89.297v0.163h0.164h27.227h0.163v-0.163v-67.087h-0.163v0.163h24.146
	c7.226,0.022,10.827,3.776,10.85,11.013v55.911v0.163h0.174h27.216h0.174v-0.163v-58.501c-0.032-19.185-11.263-30.926-26.911-30.959
	h-62.875h-0.164v0.163H383.892"/>
<path fill="#003263" d="M315.466,204.917h19.446c11.339,0,25.115,8.912,25.115,30.785v58.512h-27.227v-57.217
	c0-5.669-2.59-9.88-11.176-9.88h-6.159V204.917z"/>
<path fill="#003263" d="M315.466,204.917v0.163h19.446c11.252,0.011,24.941,8.825,24.952,30.622v58.512h0.163v-0.174h-27.227v0.174
	h0.174v-57.217c0-2.851-0.663-5.375-2.427-7.182c-1.763-1.807-4.603-2.862-8.923-2.862h-6.159v0.164h0.163v-22.199H315.466v0.163
	V204.917h-0.174v22.199v0.174h0.174h6.159c8.521,0.022,10.979,4.092,11.013,9.707v57.217v0.163h0.163h27.227h0.163v-0.163v-58.512
	c-0.021-21.949-13.853-30.926-25.278-30.959h-19.446h-0.174v0.174H315.466"/>
<path fill="#003263" d="M300.938,294.214v-56.075c0-20.741-13.45-33.222-34.027-33.222h-69.524v22.199h11.339v67.098h26.899v-67.098
	h27.39c6.976,0,11.023,3.406,11.023,10.697v34.191h-18.313v22.21H300.938z"/>
<path fill="#003263" d="M300.938,294.214h0.163v-56.075c0-10.414-3.373-18.76-9.348-24.517c-5.974-5.746-14.527-8.88-24.843-8.88
	h-69.524h-0.175v0.174v22.199v0.174h0.175h11.339v-0.174h-0.163v67.098v0.163h0.163h26.899h0.175v-0.163v-67.098h-0.175v0.174h27.39
	c6.922,0.022,10.828,3.297,10.85,10.523v34.191h0.174v-0.163h-18.313h-0.163v0.163v22.21v0.163h0.163h45.214h0.163v-0.163H300.938
	v-0.174h-45.214v0.174h0.163v-22.21h-0.163v0.174h18.313h0.164v-0.174v-34.191c-0.012-7.367-4.157-10.849-11.188-10.86h-27.39
	h-0.163v0.164v67.098h0.163v-0.174h-26.899v0.174h0.174v-67.098v-0.164h-0.174h-11.339v0.164h0.163v-22.199h-0.163v0.163h69.524
	c20.501,0.022,33.843,12.395,33.864,33.059v56.075H300.938v-0.174V294.214"/>
<path fill="#003263" d="M924.83,294.29h-27.227v-56.075c0-7.127-3.896-11.012-11.023-11.012h-46.673v-22.21h58.175
	c15.398,0,26.748,11.513,26.748,30.796V294.29z M868.429,294.29v-48.131h-27.227v48.131H868.429z"/>
<path fill="#003263" d="M924.83,294.29v-0.164h-27.227v0.164h0.163v-56.075c-0.011-7.193-3.994-11.175-11.187-11.187h-46.673v0.174
	h0.175v-22.21h-0.175v0.174h58.175c15.311,0,26.563,11.404,26.573,30.622v58.501H924.83v-0.164V294.29h0.163v-58.501
	c-0.021-19.348-11.415-30.926-26.911-30.959h-58.175h-0.163v0.163v22.21v0.163h0.163h46.673c7.063,0.022,10.838,3.787,10.85,10.849
	v56.075v0.163h0.174h27.227h0.163v-0.163H924.83 M868.429,294.29h0.175v-48.131v-0.163h-0.175h-27.227h-0.163v0.163v48.131v0.163
	h0.163h27.227h0.175v-0.163H868.429v-0.164h-27.227v0.164h0.175v-48.131h-0.175v0.164h27.227v-0.164h-0.163v48.131H868.429v-0.164
	V294.29"/>
<path fill="#003263" d="M681.119,204.993h19.446c11.339,0,25.115,8.912,25.115,30.796v22.852h-27.227v-21.557
	c0-5.669-2.59-9.881-11.176-9.881h-6.159V204.993z"/>
<path fill="#003263" d="M681.119,204.993v0.174h19.446c11.252,0,24.94,8.814,24.952,30.622v22.852h0.163v-0.174h-27.227v0.174h0.174
	v-21.557c0-2.862-0.664-5.376-2.427-7.182c-1.763-1.807-4.603-2.873-8.923-2.873h-6.159v0.174h0.163v-22.21H681.119v0.174V204.993
	h-0.174v22.21v0.163h0.174h6.159c8.521,0.022,10.979,4.103,11.013,9.718v21.557v0.164h0.163h27.227h0.163v-0.164v-22.852
	c-0.021-21.96-13.853-30.926-25.278-30.959h-19.446h-0.174v0.163H681.119"/>
<path fill="#003263" d="M547.5,433.632h-27.227v-56.063c0-7.138-3.885-11.022-11.012-11.022h-46.673v-22.199h58.175
	c15.397,0,26.736,11.502,26.736,30.784V433.632z M491.11,433.632v-48.131h-27.227v48.131H491.11z"/>
<path fill="#003263" d="M547.5,433.632v-0.163h-27.227v0.163h0.175v-56.063c-0.011-7.204-3.994-11.175-11.187-11.187h-46.673v0.164
	h0.163v-22.199h-0.163v0.162h58.175c15.3,0.012,26.563,11.404,26.573,30.622v58.501H547.5v-0.163V433.632h0.175v-58.501
	c-0.033-19.348-11.427-30.927-26.911-30.959h-58.175h-0.174v0.175v22.199v0.162h0.174h46.673c7.062,0.021,10.827,3.787,10.849,10.86
	v56.063v0.174h0.163H547.5h0.175v-0.174H547.5 M491.11,433.632h0.163v-48.131v-0.162h-0.163h-27.227h-0.163v0.162v48.131v0.174
	h0.163h27.227h0.163v-0.174H491.11v-0.163h-27.227v0.163h0.163v-48.131h-0.163v0.174h27.227v-0.174h-0.163v48.131H491.11v-0.163
	V433.632"/>
<path fill="#003263" d="M441.38,433.73h-27.227v-56.074c0-7.127-3.885-11.023-11.023-11.023h-32.896v-22.199h44.409
	c15.397,0,26.736,11.503,26.736,30.785V433.73z"/>
<path fill="#003263" d="M441.38,433.73v-0.174h-27.227v0.174h0.164v-56.074c-0.012-7.193-3.983-11.176-11.188-11.186h-32.896v0.162
	h0.174v-22.199h-0.174v0.164h44.409c15.3,0.011,26.563,11.404,26.573,30.621v58.512H441.38v-0.174V433.73h0.163v-58.512
	c-0.021-19.348-11.415-30.926-26.899-30.947h-44.409h-0.163v0.162v22.199v0.164h0.163h32.896c7.073,0.021,10.839,3.797,10.86,10.859
	v56.074v0.164h0.163h27.227h0.163v-0.164H441.38"/>
<path fill="#003263" d="M294.703,344.347l22.536,34.996c4.854-1.133,7.77-4.854,7.77-16.041v-18.955h27.227v21.872
	c0,17.183-8.749,28.521-23.015,32.091l23.015,35.486h-86.532v-22.199h43.267l-45.704-67.25H294.703z"/>
<path fill="#003263" d="M294.703,344.347l-0.131,0.086l22.526,35.008l0.054,0.098l0.12-0.033c4.951-1.143,7.922-5.005,7.911-16.203
	v-18.955h-0.175v0.162h27.227v-0.162h-0.163v21.872c-0.011,17.128-8.694,28.369-22.885,31.927l-0.229,0.055l0.131,0.196
	l23.005,35.497l0.141-0.098v-0.164h-86.532v0.164h0.163v-22.199h-0.163v0.162h43.267h0.315l-0.175-0.261l-45.703-67.25l-0.142,0.099
	v0.162h31.438V344.347l-0.131,0.086L294.703,344.347v-0.175h-31.438h-0.315l0.185,0.261l45.693,67.262l0.142-0.098v-0.164h-43.267
	h-0.174v0.164v22.199v0.174h0.174h86.532h0.305l-0.163-0.262l-23.015-35.496l-0.142,0.098l0.043,0.163
	c14.332-3.58,23.146-15.017,23.146-32.254v-21.872v-0.175h-0.175h-27.227h-0.163v0.175v18.955
	c-0.021,11.176-2.884,14.756-7.649,15.889l0.043,0.152l0.131-0.088l-22.525-35.007l-0.044-0.076h-0.098V344.347"/>
<path fill="#003263" d="M172.892,366.981v-47.228h25.562v25.072h49.817l-2.101,40.438c-2.101,41.078-19.413,48.686-49.491,48.686
	v-22.167c16.171,0,22.156-2.742,23.288-23.614l1.131-21.187H172.892z"/>
<path fill="#003263" d="M172.892,366.981h0.174v-47.228h-0.174v0.164h25.562v-0.164h-0.163v25.072v0.163h0.163h49.817v-0.163
	l-0.163-0.012l-2.101,40.438c-2.144,41.025-19.271,48.49-49.328,48.522v0.175h0.164v-22.167h-0.164v0.174
	c16.182,0.044,22.374-2.884,23.451-23.776l1.132-21.188l0.011-0.186h-0.175h-48.206V366.981h0.174H172.892v0.163h48.206v-0.163
	l-0.163-0.011l-1.132,21.188c-1.186,20.838-6.964,23.406-23.124,23.461h-0.174v0.163v22.167v0.162h0.174
	c30.1,0.044,47.587-7.704,49.654-48.848l2.101-40.438l0.011-0.174h-0.174h-49.817v0.174h0.163v-25.072v-0.174h-0.163h-25.562h-0.163
	v0.174v47.228v0.163h0.163V366.981"/>
<path fill="#003263" d="M96.021,433.632H68.795v-56.063c0-7.138-3.885-11.022-11.023-11.022H11.1v-22.199h58.186
	c15.397,0,26.736,11.502,26.736,30.784V433.632z M39.632,433.632v-48.131H12.405v48.131H39.632z"/>
<path fill="#003263" d="M96.021,433.632v-0.163H68.795v0.163h0.175v-56.063c-0.012-7.204-3.994-11.175-11.198-11.187H11.1v0.164
	h0.174v-22.199H11.1v0.162h58.186c15.3,0.012,26.563,11.404,26.573,30.622v58.501H96.021v-0.163V433.632h0.175v-58.501
	c-0.033-19.348-11.427-30.927-26.911-30.959H11.1h-0.164v0.175v22.199v0.162H11.1h46.672c7.073,0.021,10.839,3.787,10.86,10.86
	v56.063v0.174h0.163h27.227h0.175v-0.174H96.021 M39.632,433.632h0.163v-48.131v-0.162h-0.163H12.405h-0.174v0.162v48.131v0.174
	h0.174h27.227h0.163v-0.174H39.632v-0.163H12.405v0.163h0.163v-48.131h-0.163v0.174h27.227v-0.174h-0.174v48.131H39.632v-0.163
	V433.632"/>
<path fill="#003263" d="M112.203,344.347h19.446c11.35,0,25.126,8.912,25.126,30.784v22.853h-27.227v-21.558
	c0-5.669-2.59-9.88-11.187-9.88h-6.159V344.347z"/>
<path fill="#003263" d="M112.203,344.347v0.162h19.446c11.263,0.012,24.952,8.826,24.952,30.622v22.853h0.174v-0.164h-27.227v0.164
	h0.163v-21.558c0-2.851-0.652-5.376-2.416-7.183c-1.763-1.806-4.613-2.861-8.934-2.861h-6.159v0.164h0.174v-22.199H112.203v0.162
	V344.347h-0.163v22.199v0.162h0.163h6.159c8.531,0.033,10.99,4.104,11.013,9.718v21.558v0.162h0.174h27.227h0.163v-0.162v-22.853
	c-0.021-21.948-13.853-30.927-25.289-30.959h-19.446h-0.163v0.175H112.203"/>
<path fill="#003263" d="M419.627,547.566l6.986-0.631l1.056,0.566l-0.381,2.818l2.144,3.58c0,0,0.762,0.662-0.783,0.75l-5.311,0.838
	l-5.626,2.775l-1.479-0.012l-3.33-2.59l-5.724-1.861c0,0-1.688-0.184-0.392-0.793l3.732-3.123l2.198-3.221
	c0,0,0.076-0.807,1.283-0.414L419.627,547.566z"/>
<polyline fill="#003263" points="419.627,547.566 419.638,547.74 426.624,547.097 426.613,546.935 426.537,547.076 427.593,547.654 
	427.669,547.501 427.506,547.478 427.125,550.287 427.114,550.351 427.146,550.396 429.29,553.986 429.302,554.007 429.323,554.029 
	429.454,554.236 428.648,554.486 428.638,554.486 428.627,554.486 423.316,555.324 423.283,555.324 423.262,555.335 
	417.636,558.111 417.712,558.263 417.712,558.089 416.232,558.078 416.232,558.251 416.33,558.121 413,555.531 412.979,555.509 
	412.957,555.5 407.232,553.648 407.222,553.638 407.2,553.638 406.471,553.419 406.852,553.148 406.874,553.148 406.896,553.126 
	410.628,550.015 410.649,550.003 410.661,549.982 412.858,546.75 412.881,546.716 412.892,546.673 413.414,546.304 413.947,546.412 
	413.958,546.412 413.958,546.412 419.584,547.73 419.616,547.74 419.638,547.74 419.627,547.566 419.66,547.402 414.034,546.085 
	414.001,546.25 414.045,546.097 413.414,545.978 412.554,546.64 412.718,546.664 412.587,546.564 410.389,549.796 410.52,549.884 
	410.41,549.753 406.678,552.876 406.787,553.007 406.711,552.855 406.134,553.419 407.168,553.976 407.179,553.8 407.135,553.964 
	412.848,555.826 412.902,555.662 412.805,555.792 416.123,558.382 416.167,558.416 416.232,558.416 417.712,558.425 
	417.756,558.425 417.788,558.404 423.414,555.628 423.338,555.488 423.359,555.652 428.681,554.814 428.648,554.65 428.659,554.824 
	429.791,554.236 429.541,553.779 429.432,553.9 429.573,553.812 427.43,550.232 427.288,550.32 427.451,550.341 427.843,547.523 
	427.854,547.402 427.756,547.349 426.689,546.783 426.646,546.761 426.592,546.761 419.605,547.402 419.627,547.566 419.66,547.402 
	419.627,547.566 "/>
<path fill="#003263" d="M198.278,485.779l23.582,0.021c0,0,5.233-0.305,3.906,2.645l-3.515,11.73l12.09,12.09
	c0,0,2.785,2.688-2.308,2.285l-22.362-1.719l-13.396,9.478c0,0-2.492,2.187-5.19-0.696l-10.044-12.906l-25.028-7.672
	c0,0-6.377-1.566-1.97-3.21l15.594-8.292l2.546-12.438c0,0-0.185-3.037,4.451-0.838L198.278,485.779z"/>
<path fill="#003263" d="M198.278,485.779v0.163l23.582,0.021l0,0h0.011h0.392l2.198,0.272l1.349,1.327l-0.195,0.816l-0.011,0.011
	v0.011l-3.515,11.731l-0.022,0.098l0.065,0.064l12.09,12.09l0.707,1.252c0,0.359-0.294,0.772-1.958,0.783l-0.926-0.032l-22.362-1.72
	l-0.064-0.011l-0.044,0.032l-13.396,9.479l-0.011,0.011l0,0c0,0.011-0.871,0.762-2.111,0.762c-0.816-0.011-1.807-0.326-2.851-1.437
	l-0.12,0.109l0.131-0.098l-10.044-12.906l-0.033-0.043l-0.043-0.022l-25.04-7.661l0,0l-0.011-0.011l-1.729-0.565l-1.654-1.263
	c-0.021-0.239,0.315-0.653,1.437-1.066h0.011h0.011l15.594-8.292l0.076-0.043l0.011-0.076l2.547-12.438v-0.022v-0.021v-0.043
	c0.011-0.25,0.043-1.415,1.512-1.415c0.61,0,1.48,0.207,2.71,0.784l21.645,9.521l0.032,0.011h0.032V485.779l0.065-0.152
	l-21.633-9.521c-1.251-0.588-2.165-0.816-2.852-0.816c-1.729,0-1.85,1.48-1.85,1.752v0.064l0.174-0.01l-0.174-0.033l-2.535,12.438
	l0.163,0.033l-0.076-0.152l-15.604,8.292l0.087,0.152l-0.065-0.152c-1.132,0.425-1.644,0.849-1.654,1.371
	c0.109,1.394,3.635,2.111,3.646,2.155l0.044-0.164l-0.055,0.164l25.039,7.672l0.044-0.164l-0.131,0.098l10.044,12.917l0,0
	l0.011,0.011c1.089,1.164,2.188,1.545,3.091,1.535c1.382,0,2.317-0.816,2.329-0.828l-0.109-0.13l0.098,0.142l13.396-9.479
	l-0.099-0.141l-0.021,0.162l22.362,1.73l0.958,0.033c1.664,0,2.296-0.469,2.296-1.121l-0.806-1.49l-12.09-12.08l-0.119,0.109
	l0.163,0.055l3.504-11.742l-0.152-0.043l0.152,0.064l0.229-0.946c-0.065-1.85-2.862-1.915-3.885-1.937l-0.414,0.011l0.012,0.163
	v-0.163l-23.582-0.032V485.779l0.065-0.152L198.278,485.779"/>
<path fill="#003263" d="M295.128,528.109l15.975-1.338c0,0,3.667-0.402,2.731,1.588l-1.23,8.227l7.237,7.27
	c0,0,1.98,1.697-1.633,1.611l-15.844,0.424l-9.337,5.996c0,0-1.752,1.545-3.612-0.283l-7.28-8.27l-16.605-4.07
	c0,0-4.31-0.795-1.295-2.024l12.241-5.931l0.393-8.227c0,0-0.088-1.959,3.047-0.719L295.128,528.109z"/>
<path fill="#003263" d="M295.128,528.109l0.021,0.164l15.964-1.328l0.718-0.033l1.339,0.174l0.642,0.686l-0.13,0.523l-0.012,0.021
	l-0.011,0.021l-1.219,8.227l-0.011,0.076l0.055,0.065l7.236,7.259l0.011,0.01l0,0l0.49,0.773c-0.012,0.195-0.24,0.545-1.764,0.555
	h-0.25l0,0h-0.011l-15.833,0.414h-0.044l-0.043,0.033l-9.337,5.994l-0.011,0.012l-0.011,0.012l-1.557,0.564l-1.828-0.848
	l-0.119,0.119l0.119-0.109l-7.269-8.27l-0.033-0.043l-0.055-0.012l-16.616-4.07l0,0h-0.011l-2.22-1l0.968-0.708l0,0h0.012
	l12.241-5.931l0.088-0.043v-0.098l0.392-8.228v-0.011v-0.011v-0.011c0.021-0.109,0-0.936,1.132-0.936l1.697,0.402l15.213,5.734
	l0.032,0.012h0.044L295.128,528.109l0.064-0.163l-15.212-5.735l-1.817-0.424c-1.371,0-1.47,1.132-1.47,1.273v0.032l0.175-0.011
	l-0.175-0.011l-0.381,8.227l0.163,0.011l-0.076-0.152l-12.241,5.931l0.076,0.152l-0.065-0.152l-1.176,1.013
	c0.131,1.012,2.492,1.273,2.503,1.326l0.033-0.162l-0.044,0.162l16.616,4.07l0.033-0.162l-0.12,0.107l7.27,8.271h0.011v0.01
	l2.067,0.936c1.045,0,1.763-0.631,1.773-0.641l-0.108-0.131l0.087,0.141l9.348-5.996l-0.098-0.141l0.011,0.164l15.833-0.426v-0.162
	l-0.011,0.162l0.261,0.012c1.513-0.012,2.068-0.348,2.09-0.893l-0.599-1.023l-0.108,0.131l0.119-0.119l-7.236-7.27l-0.12,0.119
	l0.164,0.022l1.229-8.228l-0.163-0.021l0.141,0.076l0.175-0.664c-0.055-1.098-1.48-1.186-2.318-1.196l-0.751,0.032l-15.964,1.339
	L295.128,528.109l0.064-0.163L295.128,528.109"/>
<path fill="#003263" d="M372.236,545.412l10.196-0.773c0,0,2.361-0.381,1.688,0.926l-1.447,5.158l4.787,4.57
	c0,0,1.23,1.033-1.109,1.088l-9.435,0.881l-6.965,3.951c0,0-1.186,1.045-2.296-0.088l-5.343-4.863l-9.217-2.318
	c0,0-2.645-0.381-0.708-1.24l7.498-4.582l1.012-4.723c0,0,0.022-1.219,1.948-0.543L372.236,545.412z"/>
<path fill="#003263" d="M372.236,545.412l0.011,0.162l10.197-0.771h0.011l0,0l0.663-0.043l0.958,0.391l-0.098,0.338l-0.011,0.01
	v0.023l-1.459,5.156l-0.032,0.1l0.076,0.064l4.799,4.57l0,0l0.011,0.012l0.25,0.412c0,0.088-0.119,0.35-1.262,0.371h-0.011l0,0
	l-9.435,0.893h-0.033l-0.032,0.021l-6.976,3.949l-0.011,0.012l-0.021,0.01l-1.034,0.393l-1.022-0.469l-5.344-4.885l-0.032-0.021
	l-0.044-0.012l-9.217-2.318h-0.011h-0.011l-1.273-0.488l0.609-0.436l0.011-0.012h0.012l7.497-4.57l0.065-0.043l0.011-0.066
	l1.012-4.732v-0.012v-0.021l0.784-0.576l0.936,0.186l0.011,0.01h0.011l9.392,2.557h0.021h0.032L372.236,545.412l0.044-0.164
	l-9.392-2.557l-0.043,0.164l0.055-0.164l-1.056-0.207c-1.056-0.01-1.11,0.893-1.121,0.914h0.174l-0.163-0.033l-1.012,4.723
	l0.163,0.033l-0.087-0.141l-7.498,4.58l0.087,0.143l-0.076-0.152l-0.805,0.74l1.566,0.814l0.022-0.162l-0.044,0.162l9.217,2.309
	l0.044-0.152l-0.109,0.119l5.333,4.875l1.262,0.566l1.263-0.479l-0.109-0.131l0.076,0.152l6.976-3.961l-0.087-0.143l0.021,0.164
	l9.424-0.883l-0.011-0.162v0.162c1.143-0.021,1.578-0.281,1.6-0.707l-0.381-0.674l-0.109,0.131l0.12-0.121l-4.799-4.57l-0.108,0.121
	l0.163,0.043l1.447-5.158l-0.163-0.043l0.152,0.076l0.141-0.49l-1.295-0.729l-0.718,0.055l0.032,0.162l-0.011-0.162l-10.207,0.771
	L372.236,545.412l0.044-0.164L372.236,545.412"/>
<path fill="#003263" d="M53.321,228.171l25.932-2.394c0,0,5.865-0.152,4.168,3.417l-10.066,14.223l17.847,15.268
	c0,0,2.895,3.362-2.721,2.688l-26.77-4.701l-13.603,12.808c0,0-2.938,2.568-5.778-1.044l-8.563-18.194l-29.719-8.488
	c0,0-7.149-2.22-2.046-4.059l25.714-5.528l-3.819-19.402c0,0-0.021-3.776,5.115-0.816L53.321,228.171z"/>
<path fill="#003263" d="M53.321,228.171l0.021,0.164l25.921-2.394l-0.011-0.164v0.164h0.087l2.383,0.305l1.839,1.763l-0.293,1.121
	l0.152,0.065l-0.142-0.098L73.224,243.33l-0.087,0.12l0.109,0.098l17.846,15.256l0.109-0.12l-0.12,0.108l0.696,1.524
	c0,0.489-0.315,0.958-1.969,0.979l-1.307-0.087l-0.021,0.163l0.021-0.163l-26.758-4.701l-0.088-0.011l-0.054,0.055l-13.613,12.808
	l0.119,0.12L48,269.349c0,0.011-0.979,0.849-2.318,0.849c-0.936,0-2.067-0.402-3.221-1.861l-0.131,0.098l0.152-0.065l-8.563-18.205
	l-0.033-0.065l-0.076-0.022l-29.719-8.488l-1.915-0.762l-1.85-1.643c-0.011-0.359,0.403-0.86,1.73-1.338l-0.055-0.152l0.033,0.163
	l25.714-5.528l0.164-0.033l-0.033-0.163l-3.82-19.403v-0.011l-0.011-0.011l-0.152,0.054h0.163l-0.011-0.054l-0.152,0.054h0.163
	c0.011-0.033,0-1.785,1.73-1.785c0.696,0,1.708,0.283,3.134,1.11l0.087-0.141l-0.098,0.13l24.321,16.236l0.043,0.033l0.065-0.011
	L53.321,228.171l0.098-0.141l-24.321-16.225v-0.011h-0.011c-1.458-0.838-2.514-1.154-3.297-1.154
	c-2.046,0.022-2.057,2.089-2.067,2.122l0.011,0.065l0.163-0.065l-0.163,0.033l3.809,19.402l0.174-0.033l-0.043-0.163L1.97,237.53
	H1.958l-0.011,0.011c-1.36,0.49-1.937,1.012-1.948,1.643c0.098,1.622,3.994,2.688,3.994,2.731l29.729,8.477l0.044-0.152
	l-0.152,0.065l8.564,18.206l0.011,0.011l0.011,0.022c1.197,1.513,2.438,1.991,3.482,1.991c1.48-0.011,2.515-0.925,2.536-0.936l0,0
	l0,0l13.613-12.808l-0.12-0.12l-0.032,0.163l26.77,4.701l0,0h0.011l1.35,0.098c1.687,0,2.307-0.599,2.307-1.316l-0.783-1.741
	l-0.012-0.011l-0.011-0.011l-17.846-15.256l-0.109,0.12l0.142,0.098l10.055-14.223l0.011-0.011v-0.011l0.327-1.262
	c-0.076-2.383-3.918-2.383-4.549-2.405h-0.098l0,0H79.23l-25.92,2.405L53.321,228.171l0.098-0.141L53.321,228.171"/>
<path fill="#003263" d="M75.053,123.455l27.847-4.135c0,0,6.191-0.196,3.961,3.929L92.572,139.68l18.858,17.487
	c0,0,2.622,3.863-3.188,3.123l-29.294-6.714l-14.125,16.323c0,0-3.396,2.982-5.952-1.164l-5.713-21.514L21.655,138.2
	c0,0-7.302-2.514-1.676-4.679l29.468-5.746l-3.341-23.222c0,0,0.436-4.385,5.495-0.979L75.053,123.455z"/>
<path fill="#003263" d="M75.053,123.455l0.032,0.163l27.836-4.135l-0.021-0.164v0.164h0.13l2.384,0.326l1.763,1.839l-0.457,1.523
	l0.142,0.076l-0.12-0.109l-14.288,16.432l-0.108,0.12l0.119,0.109l18.858,17.498l0.109-0.13l-0.131,0.098l0.555,1.61
	c-0.021,0.675-0.369,1.317-2.274,1.339l-1.316-0.087l-0.021,0.164l0.032-0.164l-29.294-6.714l-0.098-0.022l-0.065,0.076
	L64.704,169.79l0.119,0.109l-0.108-0.13c0,0.011-1.154,1.012-2.568,1.001c-0.979,0-2.101-0.457-3.123-2.122l-0.152,0.087
	l0.163-0.033l-5.724-21.524l-0.022-0.098l-0.087-0.021l-31.503-9.01l-0.043,0.152l0.055-0.152c-0.011,0-3.776-1.393-3.689-2.709
	c-0.011-0.468,0.468-1.066,2.013-1.665l-0.054-0.152l0.022,0.163l29.479-5.746l0.152-0.033l-0.021-0.152l-3.341-23.233l-0.163,0.033
	l0.163,0.011c0,0,0.229-2.144,2.079-2.122c0.739,0,1.763,0.326,3.166,1.262l0.087-0.131l-0.098,0.12l23.439,19.881l0.065,0.055
	l0.076-0.011L75.053,123.455l0.108-0.13l-23.45-19.881v-0.011H51.7c-1.437-0.969-2.514-1.328-3.352-1.328
	c-2.188,0.021-2.405,2.427-2.416,2.427v0.021v0.022l3.352,23.222l0.163-0.021l-0.032-0.164l-29.469,5.746h-0.021h-0.011
	c-1.578,0.61-2.22,1.263-2.23,1.981c0.076,1.784,3.917,2.981,3.917,3.025l0,0h0.011l31.492,9.01l0.055-0.152l-0.163,0.043
	l5.724,21.514v0.033l0.011,0.021c1.066,1.73,2.317,2.274,3.417,2.274c1.578-0.011,2.774-1.077,2.786-1.088h0.011l0.011-0.011
	l14.113-16.323l-0.119-0.109l-0.044,0.163l29.294,6.714h0.011h0.012l1.359,0.098c1.97,0,2.612-0.816,2.612-1.676l-0.62-1.795
	l-0.011-0.021l-0.012-0.011l-18.858-17.487l-0.119,0.12l0.131,0.109l14.287-16.432l0.012-0.011l0.011-0.021l0.5-1.676
	c-0.065-2.449-3.754-2.481-4.483-2.503l-0.142,0.011h-0.011l0,0l-27.847,4.135L75.053,123.455l0.108-0.13L75.053,123.455"/>
<path fill="#003263" d="M181.021,26.062l37.781-5.778c0,0,7.977-0.261,4.037,4.635l-24.233,19.25l21.121,20.741
	c0,0,2.329,4.505-4.886,3.689l-35.485-8.771L156.83,80.297c0,0-5.126,3.548-7.346-1.306l-1.077-24.778l-39.186-11.078
	c0,0-8.848-2.949-1.001-5.561l40.959-5.093l0.359-29.588c0,0,1.697-5.245,7.378-1.186L181.021,26.062z"/>
<path fill="#003263" d="M181.021,26.062l0.021,0.164l37.782-5.778l-0.022-0.163l0.011,0.163h0.196c0.457,0,1.687,0.033,2.774,0.326
	c1.1,0.305,1.992,0.849,1.981,1.807l-1.056,2.242l0.13,0.098l-0.108-0.13l-24.234,19.25l-0.142,0.12l0.131,0.131l21.122,20.741
	l0.119-0.12l-0.141,0.076l0.337,1.404c-0.021,0.979-0.512,2.111-3.472,2.144l-1.589-0.098l-0.021,0.163l0.044-0.163l-35.497-8.771
	l-0.087-0.022l-0.065,0.055l-22.515,20.479l0.109,0.12l-0.099-0.13c0,0-1.784,1.219-3.646,1.219
	c-1.272-0.011-2.567-0.544-3.449-2.459l-0.152,0.065h0.174l-1.077-24.789l-0.011-0.12l-0.12-0.033l-39.186-11.067l-0.043,0.152
	l0.054-0.152c-0.021,0-4.211-1.491-4.135-3.003c-0.011-0.62,0.729-1.447,3.134-2.252l-0.054-0.152l0.021,0.163l40.959-5.092
	l0.142-0.011l0.011-0.152l0.349-29.588h-0.163l0.152,0.044c0.011,0,0.87-2.623,3.352-2.612c0.969,0,2.209,0.392,3.775,1.513
	l0.099-0.131l-0.12,0.12L180.9,26.182l0.055,0.054l0.087-0.011L181.021,26.062l0.119-0.12L157.036,1.589l-0.011-0.011l-0.011-0.011
	C155.404,0.424,154.099,0,153.043,0c-2.765,0.011-3.656,2.83-3.667,2.84l-0.012,0.022v0.021l-0.348,29.599h0.163l-0.021-0.163
	l-40.96,5.093h-0.011h-0.011c-2.427,0.816-3.352,1.654-3.362,2.568c0.076,1.98,4.353,3.287,4.353,3.319l0,0h0.011l39.186,11.078
	l0.044-0.163l-0.163,0.011l1.077,24.778v0.033l0.011,0.033c0.914,2.013,2.383,2.655,3.754,2.645c2.003,0,3.831-1.273,3.842-1.273
	l0.011-0.011l0,0l22.525-20.48l-0.108-0.12l-0.044,0.164l35.486,8.771h0.011h0.011l1.632,0.098c3.036,0,3.798-1.317,3.798-2.47
	l-0.37-1.556l-0.011-0.033l-0.021-0.011L198.725,44.05l-0.119,0.12l0.098,0.13l24.234-19.25l0.021-0.011l0.011-0.011l1.132-2.448
	c-0.087-2.416-4.157-2.438-5.093-2.47l-0.207,0.011h-0.011h-0.011l-37.793,5.778L181.021,26.062l0.119-0.12L181.021,26.062"/>
</svg>
